<svg height="128pt" viewBox="0 0 512 128.02876" width="128pt" xmlns="http://www.w3.org/2000/svg"><path d="m298.679688 153.613281c.003906 38.476563-15.277344 75.378907-42.484376 102.582031-27.207031 27.207032-64.105468 42.488282-102.582031 42.488282-4.273437.015625-8.546875-.183594-12.800781-.601563-74.859375-6.613281-132.265625-69.316406-132.265625-144.46875 0-75.148437 57.40625-137.851562 132.265625-144.46875 4.253906-.414062 8.527344-.613281 12.800781-.597656 38.476563 0 75.375 15.28125 102.582031 42.488281 27.207032 27.203125 42.488282 64.105469 42.484376 102.578125zm0 0" fill="#0377bc"/><path d="m273.082031 153.613281c0-79.785156-59.21875-144.46875-132.269531-144.46875-73.046875 0-132.265625 64.683594-132.265625 144.46875 0 79.789063 59.21875 144.46875 132.265625 144.46875 73.050781 0 132.269531-64.679687 132.269531-144.46875zm0 0" fill="#02a9f4"/><path d="m503.480469 375.480469c-.023438 70.683593-57.316407 127.976562-128 128-4.191407.035156-8.378907-.195313-12.542969-.683594-.171875 0-.339844.085937-.511719 0-65.296875-6.683594-114.949219-61.679687-114.949219-127.316406s49.652344-120.632813 114.949219-127.316407c.167969-.085937.339844 0 .511719 0 4.164062-.488281 8.351562-.714843 12.542969-.683593 70.683593.027343 127.976562 57.320312 128 128zm0 0" fill="#f57c00"/><path d="m477.882812 375.480469c-.054687 65.613281-49.679687 120.578125-114.945312 127.316406-.171875 0-.339844.085937-.511719 0-65.296875-6.683594-114.949219-61.679687-114.949219-127.316406s49.652344-120.632813 114.949219-127.316407c.167969-.085937.339844 0 .511719 0 65.265625 6.738282 114.890625 61.703126 114.945312 127.316407zm0 0" fill="#fec108"/><path d="m162.148438 8.804688v16.808593c0 4.714844-3.820313 8.535157-8.535157 8.535157-4.710937 0-8.53125-3.820313-8.53125-8.535157v-16.808593c2.816407-.171876 5.628907-.257813 8.53125-.257813 2.902344 0 5.71875.085937 8.535157.257813zm0 0" fill="#a5a5a4"/><path d="m162.148438 8.546875v.257813c-2.816407-.171876-5.632813-.257813-8.535157-.257813-2.902343 0-5.714843.085937-8.53125.257813v-.257813c0-4.710937 3.820313-8.53125 8.53125-8.53125 4.714844 0 8.535157 3.820313 8.535157 8.53125zm0 0" fill="#5e5f62"/><path d="m153.613281 307.214844c-2.261719 0-4.433593-.898438-6.035156-2.496094-1.601563-1.601562-2.5-3.773438-2.496094-6.035156v-17.070313c0-4.710937 3.820313-8.53125 8.53125-8.53125 4.714844 0 8.535157 3.820313 8.535157 8.53125v17.070313c0 2.261718-.898438 4.433594-2.5 6.035156-1.597657 1.597656-3.769532 2.496094-6.035157 2.496094zm0 0" fill="#5e5f62"/><path d="m93.882812 50.191406c-4.109374 2.308594-9.308593.90625-11.691406-3.15625l-4.269531-7.425781c-2.234375-3.816406-1.113281-8.714844 2.5625-11.179687.078125-.066407.164063-.121094.253906-.167969l1.027344-.511719c0-.023438.007813-.046875.023437-.0625.015626-.015625.039063-.023438.0625-.023438 3.976563-1.839843 8.699219-.363281 10.921876 3.414063l4.265624 7.421875c2.320313 4.105469.914063 9.3125-3.15625 11.691406zm0 0" fill="#a5a5a4"/><path d="m81.765625 27.75-1.027344.511719c.097657-.105469.214844-.191407.34375-.257813.253907-.085937.425781-.253906.683594-.253906zm0 0" fill="#5e5f62"/><path d="m221.890625 280.390625c-3.050781 0-5.875-1.625-7.402344-4.265625l-4.265625-7.394531c-2.351562-4.082031-.953125-9.296875 3.128906-11.652344 4.078126-2.355469 9.296876-.960937 11.65625 3.121094l4.265626 7.390625c1.523437 2.640625 1.523437 5.890625 0 8.53125-1.519532 2.640625-4.335938 4.265625-7.382813 4.269531zm0 0" fill="#5e5f62"/><path d="m50.191406 93.882812c-2.386718 4.0625-7.585937 5.464844-11.691406 3.15625l-7.425781-4.265624c-3.777344-2.222657-5.25-6.945313-3.410157-10.921876-.003906-.023437.007813-.046874.023438-.0625.015625-.015624.039062-.023437.058594-.023437l.515625-1.023437c.042969-.09375.101562-.179688.167969-.257813 2.464843-3.675781 7.363281-4.796875 11.179687-2.558594l7.421875 4.265625c4.074219 2.378906 5.480469 7.585938 3.160156 11.691406zm0 0" fill="#a5a5a4"/><path d="m28.261719 80.742188-.515625 1.023437c0-.257813.171875-.425781.257812-.683594.0625-.128906.152344-.246093.257813-.339843zm0 0" fill="#5e5f62"/><path d="m271.847656 230.414062c-1.496094.003907-2.964844-.390624-4.257812-1.140624l-7.390625-4.265626c-4.082031-2.359374-5.476563-7.578124-3.121094-11.65625 2.355469-4.082031 7.570313-5.480468 11.652344-3.128906l7.390625 4.265625c3.351562 1.933594 4.980468 5.875 3.980468 9.605469-1.003906 3.734375-4.390624 6.328125-8.253906 6.320312zm0 0" fill="#5e5f62"/><path d="m35.382812 230.414062c-3.867187.007813-7.253906-2.585937-8.253906-6.320312-1.003906-3.730469.628906-7.671875 3.976563-9.605469l7.390625-4.265625c2.640625-1.527344 5.898437-1.527344 8.539062 0 2.640625 1.523438 4.269532 4.34375 4.265625 7.390625 0 3.050781-1.628906 5.871094-4.269531 7.394531l-7.390625 4.265626c-1.296875.75-2.765625 1.144531-4.257813 1.140624zm0 0" fill="#5e5f62"/><path d="m276.152344 92.773438-7.421875 4.265624c-4.101563 2.355469-9.335938.941407-11.691407-3.15625-2.355468-4.101562-.945312-9.335937 3.15625-11.691406l7.425782-4.265625c3.816406-2.238281 8.714844-1.117187 11.175781 2.558594.066406.078125.125.164063.171875.253906l.511719 1.027344c.023437-.003906.046875.007813.0625.023437.015625.015626.023437.039063.023437.058594 1.839844 3.980469.363282 8.703125-3.414062 10.925782zm0 0" fill="#a5a5a4"/><path d="m279.480469 81.765625-.511719-1.023437c.105469.09375.191406.210937.253906.339843.085938.253907.257813.425781.257813.683594zm0 0" fill="#5e5f62"/><path d="m85.339844 280.390625c-3.046875-.003906-5.863282-1.628906-7.386719-4.269531s-1.519531-5.890625.003906-8.53125l4.265625-7.390625c2.359375-4.082031 7.574219-5.476563 11.65625-3.121094 4.082032 2.355469 5.480469 7.570313 3.128906 11.652344l-4.269531 7.394531c-1.527343 2.640625-4.347656 4.265625-7.398437 4.265625zm0 0" fill="#5e5f62"/><path d="m229.304688 39.609375-4.265626 7.425781c-2.355468 4.097656-7.589843 5.511719-11.691406 3.15625-4.101562-2.355468-5.515625-7.589844-3.15625-11.691406l4.265625-7.421875c2.222657-3.777344 6.945313-5.253906 10.921875-3.414063.023438 0 .042969.007813.0625.023438.015625.015625.023438.039062.023438.0625.453125.203125.886718.460938 1.28125.765625 0-.085937.085937 0 .085937 0 3.566407 2.503906 4.640625 7.3125 2.472657 11.09375zm0 0" fill="#a5a5a4"/><path d="m226.746094 28.515625c-.394532-.304687-.828125-.5625-1.28125-.765625.253906 0 .425781.167969.683594.253906.238281.117188.445312.292969.597656.511719zm0 0" fill="#5e5f62"/><path d="m34.148438 153.613281c-.015626 4.710938-3.828126 8.523438-8.535157 8.535157h-16.808593c-.171876-2.816407-.257813-5.632813-.257813-8.535157 0-2.898437.085937-5.714843.257813-8.53125h16.808593c4.707031.011719 8.519531 3.824219 8.535157 8.53125zm0 0" fill="#a5a5a4"/><path d="m8.546875 153.613281c0 2.902344.085937 5.71875.257813 8.535157h-.257813c-4.710937 0-8.53125-3.820313-8.53125-8.535157 0-4.710937 3.820313-8.53125 8.53125-8.53125h.257813c-.171876 2.816407-.257813 5.632813-.257813 8.53125zm0 0" fill="#5e5f62"/><path d="m298.679688 162.148438h-17.066407c-4.710937 0-8.53125-3.820313-8.53125-8.535157 0-4.710937 3.820313-8.53125 8.53125-8.53125h17.066407c4.714843 0 8.535156 3.820313 8.535156 8.53125 0 4.714844-3.820313 8.535157-8.535156 8.535157zm0 0" fill="#5e5f62"/><path d="m221.882812 162.148438h-42.667968c-4.714844 0-8.535156-3.820313-8.535156-8.535157 0-4.710937 3.820312-8.53125 8.535156-8.53125h42.667968c4.710938 0 8.53125 3.820313 8.53125 8.53125 0 4.714844-3.820312 8.535157-8.53125 8.535157zm0 0" fill="#5e5f62"/><path d="m162.148438 59.75v47.613281c-5.804688 1.28125-11.519532 2.816407-17.066407 4.4375v-52.050781c0-4.714844 3.820313-8.535156 8.53125-8.535156 4.714844 0 8.535157 3.820312 8.535157 8.535156zm0 0" fill="#a5a5a4"/><path d="m162.148438 107.363281v20.652344c-.011719.488281-.066407.972656-.171876 1.449219-.679687 4.089844-4.21875 7.085937-8.363281 7.085937s-7.679687-2.996093-8.363281-7.085937c-.101562-.476563-.160156-.960938-.167969-1.449219v-16.214844c5.546875-1.621093 11.261719-3.15625 17.066407-4.4375zm0 0" fill="#5e5f62"/><path d="m179.214844 153.613281c0 14.140625-11.460938 25.601563-25.601563 25.601563-14.136719 0-25.597656-11.460938-25.597656-25.601563 0-14.136719 11.460937-25.597656 25.597656-25.597656 14.140625 0 25.601563 11.460937 25.601563 25.597656zm0 0" fill="#424242"/><path d="m384.015625 375.480469c-.015625 4.707031-3.828125 8.519531-8.535156 8.535156-2.859375.035156-5.714844-.195313-8.53125-.683594-15.699219-1.660156-29.714844-10.5625-37.890625-24.0625 5.121094-2.304687 10.328125-4.523437 15.785156-6.742187 5.234375 7.320312 13.207031 12.214844 22.105469 13.566406 2.804687.59375 5.664062.878906 8.53125.855469 4.707031.011719 8.519531 3.824219 8.535156 8.53125zm0 0" fill="#d25627"/><path d="m426.679688 341.347656c0 4.714844-3.820313 8.535156-8.53125 8.535156-4.714844 0-8.535157-3.820312-8.535157-8.535156-.023437-2.449218-.484375-4.878906-1.363281-7.167968 5.546875-1.109376 11.179688-2.046876 16.980469-2.898438.957031 3.269531 1.445312 6.660156 1.449219 10.066406zm0 0" fill="#d25627"/><path d="m375.480469 452.28125c-28.234375 0-51.199219-19.140625-51.199219-42.667969 0-4.710937 3.820312-8.53125 8.53125-8.53125 4.714844 0 8.535156 3.820313 8.535156 8.53125 0 14.117188 15.308594 25.601563 34.132813 25.601563s34.132812-11.484375 34.132812-25.601563c0-14.113281-15.308593-25.597656-34.132812-25.597656-4.710938 0-8.53125-3.820313-8.53125-8.535156 0-4.710938 3.820312-8.53125 8.53125-8.53125 28.234375 0 51.199219 19.140625 51.199219 42.664062 0 23.527344-22.964844 42.667969-51.199219 42.667969zm0 0" fill="#d25627"/><path d="m384.015625 339.726562v121.089844c0 4.710938-3.820313 8.53125-8.535156 8.53125-4.710938 0-8.53125-3.820312-8.53125-8.53125v-116.140625c5.460937-1.792969 11.175781-3.496093 17.066406-4.949219zm0 0" fill="#d25627"/><g fill="#e57e25"><path d="m384.015625 247.480469v8.875c-2.816406-.253907-5.71875-.339844-8.535156-.339844-2.902344 0-5.714844.085937-8.53125.339844v-8.875c0-4.710938 3.820312-8.53125 8.53125-8.53125 4.714843 0 8.535156 3.820312 8.535156 8.53125zm0 0"/><path d="m375.480469 512.015625c-2.261719 0-4.433594-.898437-6.035157-2.5-1.601562-1.597656-2.5-3.769531-2.496093-6.035156v-8.53125c0-4.714844 3.820312-8.535157 8.53125-8.535157 4.714843 0 8.535156 3.820313 8.535156 8.535157v8.53125c0 2.265625-.898437 4.4375-2.5 6.035156-1.601563 1.601563-3.769531 2.5-6.035156 2.5zm0 0"/><path d="m323.257812 268.046875c-5.117187 2.492187-10.050781 5.34375-14.761718 8.53125-.085938-.082031-.085938-.167969-.171875-.253906l-4.097657-7.167969-.167968-.253906c-2.359375-4.101563-.945313-9.335938 3.15625-11.691406 4.101562-2.359376 9.332031-.945313 11.691406 3.15625l.167969.257812 4.097656 7.167969c.066406.066406.097656.160156.085937.253906zm0 0"/><path d="m439.488281 494.863281c-3.050781.003907-5.871093-1.621093-7.398437-4.265625l-4.265625-7.390625c-2.355469-4.082031-.953125-9.300781 3.125-11.65625 4.082031-2.355469 9.300781-.957031 11.65625 3.121094l4.265625 7.394531c1.527344 2.636719 1.527344 5.890625.003906 8.53125-1.523438 2.636719-4.335938 4.265625-7.386719 4.265625zm0 0"/><path d="m276.578125 308.496094c-3.1875 4.710937-6.039063 9.644531-8.53125 14.761718-.09375.011719-.1875-.019531-.257813-.085937l-7.167968-4.09375-.253906-.171875c-4.101563-2.355469-5.515626-7.589844-3.15625-11.691406 2.355468-4.101563 7.589843-5.511719 11.6875-3.15625l.257812.167968 7.167969 4.097657c.085937.085937.171875.085937.253906.171875zm0 0"/><path d="m486.324219 448.015625c-1.496094 0-2.964844-.394531-4.257813-1.140625l-7.394531-4.269531c-4.078125-2.355469-5.476563-7.574219-3.121094-11.65625 2.355469-4.078125 7.574219-5.480469 11.65625-3.125l7.390625 4.265625c3.347656 1.929687 4.980469 5.871094 3.976563 9.605468-1 3.730469-4.386719 6.324219-8.25 6.320313zm0 0"/><path d="m256.015625 375.480469c0 2.902343.085937 5.71875.339844 8.535156h-8.875c-4.710938 0-8.53125-3.820313-8.53125-8.535156 0-4.710938 3.820312-8.53125 8.53125-8.53125h8.875c-.253907 2.816406-.339844 5.628906-.339844 8.53125zm0 0"/><path d="m503.480469 384.015625h-8.53125c-4.714844 0-8.535157-3.820313-8.535157-8.535156 0-4.710938 3.820313-8.53125 8.535157-8.53125h8.53125c4.714843 0 8.535156 3.820312 8.535156 8.53125 0 4.714843-3.820313 8.535156-8.535156 8.535156zm0 0"/><path d="m264.640625 448.015625c-3.867187.003906-7.253906-2.589844-8.253906-6.320313-1.003907-3.734374.628906-7.675781 3.976562-9.605468l7.390625-4.265625c2.644532-1.527344 5.898438-1.527344 8.539063-.003907 2.640625 1.527344 4.269531 4.34375 4.269531 7.394532-.003906 3.050781-1.632812 5.867187-4.273438 7.390625l-7.390624 4.269531c-1.296876.746094-2.765626 1.140625-4.257813 1.140625zm0 0"/><path d="m490.597656 318.90625-.257812.171875-7.167969 4.09375c-.066406.066406-.160156.097656-.253906.085937-2.472657-5.117187-5.355469-10.027343-8.621094-14.679687.097656-.105469.214844-.191406.339844-.253906l7.167969-4.097657.257812-.167968c2.652344-1.523438 5.917969-1.519532 8.5625.015625 2.644531 1.535156 4.273438 4.367187 4.265625 7.425781-.003906 3.058594-1.640625 5.882812-4.292969 7.40625zm0 0"/><path d="m311.472656 494.863281c-3.046875 0-5.863281-1.628906-7.386718-4.265625-1.523438-2.640625-1.519532-5.894531.003906-8.53125l4.265625-7.394531c2.359375-4.078125 7.574219-5.476563 11.65625-3.121094s5.480469 7.574219 3.128906 11.65625l-4.269531 7.390625c-1.527344 2.644532-4.347656 4.269532-7.398438 4.265625zm0 0"/><path d="m446.90625 268.902344-.171875.253906-4.097656 7.167969c-.082031.085937-.082031.171875-.253907.253906-4.664062-3.21875-9.570312-6.070313-14.679687-8.53125-.007813-.09375.023437-.1875.085937-.253906l4.097657-7.167969.171875-.257812c1.523437-2.652344 4.347656-4.289063 7.40625-4.296876 3.058594-.003906 5.886718 1.621094 7.421875 4.265626 1.535156 2.648437 1.542969 5.914062.019531 8.566406zm0 0"/></g><path d="m213.347656 384.015625h-102.398437c-9.421875-.011719-17.054688-7.648437-17.066407-17.066406v-76.800781c0-4.710938 3.820313-8.535157 8.53125-8.535157 4.714844 0 8.535157 3.824219 8.535157 8.535157v76.800781h81.796875l-11.03125-11.035157c-3.296875-3.335937-3.28125-8.710937.039062-12.027343 3.316406-3.316407 8.6875-3.335938 12.027344-.039063l25.597656 25.601563c2.441406 2.441406 3.171875 6.109375 1.851563 9.296875-1.320313 3.191406-4.429688 5.269531-7.882813 5.269531zm0 0" fill="#4482c3"/><path d="m187.746094 409.613281c-3.449219 0-6.558594-2.078125-7.878906-5.265625-1.320313-3.1875-.59375-6.859375 1.847656-9.300781l25.601562-25.597656c3.339844-3.28125 8.699219-3.257813 12.011719.054687 3.308594 3.308594 3.332031 8.671875.050781 12.011719l-25.597656 25.597656c-1.597656 1.605469-3.769531 2.503907-6.035156 2.5zm0 0" fill="#4482c3"/><path d="m375.480469 221.882812c-2.261719 0-4.433594-.902343-6.03125-2.5l-25.601563-25.601562c-3.28125-3.339844-3.257812-8.699219.054688-12.011719s8.671875-3.335937 12.011718-.054687l11.035157 11.035156v-81.800781h-76.800781c-4.714844 0-8.535157-3.820313-8.535157-8.535157 0-4.710937 3.820313-8.53125 8.535157-8.53125h76.800781c9.417969.011719 17.054687 7.644532 17.066406 17.066407v102.398437c0 4.714844-3.820313 8.535156-8.535156 8.535156zm0 0" fill="#4482c3"/><path d="m375.480469 221.882812c-3.449219 0-6.5625-2.082031-7.882813-5.269531-1.320312-3.1875-.589844-6.859375 1.851563-9.296875l25.597656-25.601562c2.148437-2.1875 5.308594-3.054688 8.273437-2.269532 2.964844.785157 5.277344 3.101563 6.0625 6.066407.785157 2.964843-.082031 6.121093-2.269531 8.269531l-25.597656 25.601562c-1.601563 1.601563-3.769531 2.5-6.035156 2.5zm0 0" fill="#4482c3"/><path d="m153.613281 307.214844c-84.828125 0-153.597656-68.769532-153.597656-153.601563 0-84.828125 68.769531-153.597656 153.597656-153.597656 84.832031 0 153.601563 68.769531 153.601563 153.597656-.097656 84.792969-68.808594 153.503907-153.601563 153.601563zm0-290.132813c-75.402343 0-136.53125 61.128907-136.53125 136.53125 0 75.40625 61.128907 136.535157 136.53125 136.535157 75.40625 0 136.535157-61.128907 136.535157-136.535157-.085938-75.367187-61.164063-136.445312-136.535157-136.53125zm0 0" fill="#2c2f38"/><path d="m502.882812 326.5c-3.070312 0-6.230468-.085938-9.214843-.085938-3.074219 0-6.144531 0-9.214844.085938 18.570313 41.316406 12.179687 89.578125-16.503906 124.636719-28.6875 35.054687-74.730469 50.875-118.902344 40.851562-44.171875-10.027343-78.878906-44.171875-89.621094-88.175781-2.558593 2.132812-4.949219 4.265625-7.167969 6.316406-2.472656 2.300782-4.777343 4.519532-6.910156 6.652344 20.367188 64.183594 84.488282 103.933594 151.03125 93.625 66.542969-10.304688 115.636719-67.585938 115.636719-134.925781.011719-16.75-3.085937-33.359375-9.132813-48.980469zm0 0" fill="#e57e25"/><path d="m502.882812 326.5c-3.070312 0-6.230468-.085938-9.214843-.085938-3.074219 0-6.144531 0-9.214844.085938-25.3125-56.332031-89.386719-84.089844-147.792969-64.023438-58.40625 20.066407-91.890625 81.34375-77.234375 141.335938-2.558593 2.132812-4.949219 4.265625-7.167969 6.316406-2.472656 2.300782-4.777343 4.519532-6.910156 6.652344-4.265625-13.347656-6.425781-27.285156-6.398437-41.300781-.015625-65.792969 46.90625-122.234375 111.597656-134.242188 64.691406-12.003906 128.742187 23.84375 152.335937 85.261719zm0 0" fill="#f29c1f"/><path d="m384.015625 290.148438v9.214843c-5.652344-.910156-11.414063-.910156-17.066406 0v-9.214843c0-4.710938 3.820312-8.535157 8.53125-8.535157 4.714843 0 8.535156 3.824219 8.535156 8.535157zm0 0" fill="#e57e25"/><path d="m264.546875 375.480469c-.003906 4.582031-3.617187 8.34375-8.191406 8.535156-.253907-2.816406-.339844-5.632813-.339844-8.535156 0-2.898438.085937-5.714844.339844-8.53125 4.574219.191406 8.1875 3.953125 8.191406 8.53125zm0 0" fill="#f29c1f"/><path d="m279.394531 320.015625c-1.5 2.636719-4.300781 4.265625-7.335937 4.265625-1.402344.003906-2.785156-.347656-4.011719-1.023438 2.492187-5.117187 5.34375-10.050781 8.53125-14.761718 3.867187 2.46875 5.105469 7.542968 2.816406 11.519531zm0 0" fill="#f29c1f"/><path d="m482.917969 323.257812c-1.230469.675782-2.609375 1.027344-4.011719 1.023438-3.035156 0-5.835938-1.628906-7.339844-4.265625-2.261718-3.933594-1.066406-8.949219 2.730469-11.4375 3.265625 4.652344 6.148437 9.5625 8.621094 14.679687zm0 0" fill="#f29c1f"/><path d="m442.382812 276.578125c-1.527343 2.496094-4.242187 4.015625-7.167968 4.011719-1.5-.023438-2.972656-.433594-4.265625-1.195313-3.980469-2.277343-5.417969-7.3125-3.246094-11.347656 5.109375 2.460937 10.015625 5.3125 14.679687 8.53125zm0 0" fill="#f29c1f"/><path d="m384.015625 256.355469c-.1875 4.578125-3.953125 8.191406-8.535156 8.191406s-8.34375-3.613281-8.53125-8.191406c2.816406-.253907 5.628906-.339844 8.53125-.339844 2.816406 0 5.71875.085937 8.535156.339844zm0 0" fill="#f29c1f"/><path d="m320.015625 279.394531c-3.964844 2.371094-9.097656 1.113281-11.519531-2.816406 4.710937-3.1875 9.644531-6.039063 14.761718-8.53125 2.175782 4.035156.734376 9.070313-3.242187 11.347656zm0 0" fill="#f29c1f"/><path d="m366.949219 299.363281v17.238281c-14.765625 2.816407-25.601563 12.886719-25.601563 24.746094.046875 3.988282 1.261719 7.875 3.496094 11.179688-5.457031 2.21875-10.664062 4.4375-15.785156 6.742187-3.117188-5.460937-4.761719-11.636719-4.777344-17.921875 0-21.160156 18.429688-38.65625 42.667969-41.984375zm0 0" fill="#e57e25"/><path d="m384.015625 316.601562v23.125c-5.890625 1.453126-11.605469 3.15625-17.066406 4.949219v-28.074219c5.628906-1.136718 11.433593-1.136718 17.066406 0zm0 0" fill="#e57e25"/><path d="m425.230469 331.28125c-5.800781.851562-11.433594 1.789062-16.980469 2.898438-4.578125-9.585938-13.699219-16.203126-24.234375-17.578126v-17.238281c18.792969 1.671875 34.894531 14.136719 41.214844 31.917969zm0 0" fill="#e57e25"/><path d="m384.015625 299.363281v17.238281c-5.632813-1.136718-11.4375-1.136718-17.066406 0v-17.238281c5.652343-.910156 11.414062-.910156 17.066406 0zm0 0" fill="#e57e25"/><path d="m.015625 153.613281c.0625 61.730469 37.019531 117.445313 93.867187 141.511719v71.824219c.011719 9.417969 7.644532 17.054687 17.066407 17.066406h81.796875l-11.03125 11.03125c-2.179688 2.152344-3.039063 5.304687-2.25 8.265625.785156 2.957031 3.09375 5.265625 6.054687 6.054688 2.957031.785156 6.109375-.074219 8.261719-2.253907l25.597656-25.597656c.078125-.074219.101563-.179687.171875-.257813.707031-.726562 1.277344-1.578124 1.679688-2.507812l.007812-.03125c.03125-.074219.027344-.152344.054688-.222656.324219-.867188.5-1.777344.527343-2.699219 0-.285156-.015624-.570313-.042968-.855469-.089844-1.015625-.328125-2.011718-.710938-2.957031-.40625-.941406-.976562-1.800781-1.6875-2.535156l-25.597656-25.601563c-3.339844-3.28125-8.703125-3.253906-12.011719.054688-3.3125 3.3125-3.335937 8.671875-.054687 12.011718l11.03125 11.035157h-81.796875v-65.890625c53.746093 15.710937 111.78125.859375 151.375-38.734375s54.445312-97.628907 38.734375-151.375h65.890625v81.800781l-11.035157-11.035156c-3.339843-3.296875-8.710937-3.277344-12.027343.039062-3.320313 3.316406-3.335938 8.691406-.039063 12.027344l25.601563 25.601562c2.429687 2.4375 6.089843 3.167969 9.273437 1.855469l.023438-.007812c.933594-.402344 1.785156-.972657 2.511718-1.679688.078126-.070312.179688-.09375.257813-.167969l25.597656-25.601562c2.1875-2.148438 3.054688-5.304688 2.269531-8.269531-.785156-2.964844-3.097656-5.28125-6.0625-6.066407-2.964843-.785156-6.125.082032-8.273437 2.269532l-11.03125 11.035156v-81.800781c-.011719-9.421875-7.648437-17.054688-17.066406-17.066407h-71.828125c-28.421875-67.332031-100.347656-105.3125-171.980469-90.816406-71.628906 14.5-123.125 77.464844-123.125 150.546875zm78.117187-113.667969 4.089844 7.085938c2.359375 4.082031 7.574219 5.476562 11.65625 3.121094 4.082032-2.355469 5.480469-7.570313 3.128906-11.652344l-4.054687-7.019531c16.261719-8.109375 33.992187-12.859375 52.128906-13.964844v8.097656c0 4.714844 3.820313 8.535157 8.53125 8.535157 4.714844 0 8.535157-3.820313 8.535157-8.535157v-8.097656c18.136718 1.105469 35.863281 5.855469 52.125 13.964844l-4.050782 7.019531c-2.351562 4.082031-.953125 9.296875 3.128906 11.652344 4.078126 2.355468 9.296876.960937 11.65625-3.121094l4.089844-7.085938c15.125 10.078126 28.105469 23.058594 38.1875 38.1875l-7.085937 4.089844c-4.082031 2.359375-5.476563 7.574219-3.121094 11.65625 2.355469 4.082032 7.570313 5.480469 11.652344 3.128906l7.019531-4.054687c8.105469 16.261719 12.855469 33.992187 13.964844 52.128906h-8.101563c-4.710937 0-8.53125 3.820313-8.53125 8.53125 0 4.714844 3.820313 8.535157 8.53125 8.535157h8.101563c-1.109375 18.136718-5.859375 35.863281-13.964844 52.128906l-7.019531-4.054688c-4.082031-2.351562-9.296875-.953125-11.652344 3.128906-2.355469 4.078126-.960937 9.296876 3.121094 11.65625l7.085937 4.089844c-10.082031 15.128906-23.0625 28.105469-38.1875 38.1875l-4.089844-7.085937c-2.359374-4.082031-7.578124-5.476563-11.65625-3.121094-4.082031 2.355469-5.480468 7.570313-3.128906 11.652344l4.050782 7.019531c-16.261719 8.109375-33.988282 12.859375-52.125 13.964844v-8.101563c0-4.710937-3.820313-8.53125-8.535157-8.53125-4.710937 0-8.53125 3.820313-8.53125 8.53125v8.101563c-18.136719-1.105469-35.867187-5.855469-52.128906-13.964844l4.054687-7.019531c2.351563-4.082031.953126-9.296875-3.128906-11.652344-4.082031-2.355469-9.296875-.960937-11.65625 3.121094l-4.089844 7.085937c-15.128906-10.082031-28.109374-23.058594-38.1875-38.1875l7.085938-4.089844c2.640625-1.523437 4.269531-4.34375 4.273438-7.394531 0-3.046875-1.628907-5.867187-4.269532-7.390625-2.640625-1.527344-5.898437-1.527344-8.539062 0l-7.015625 4.054688c-8.109375-16.265625-12.859375-33.992188-13.96875-52.128906h8.101562c4.714844 0 8.535157-3.820313 8.535157-8.535157 0-4.710937-3.820313-8.53125-8.535157-8.53125h-8.101562c1.109375-18.136719 5.859375-35.867187 13.96875-52.128906l7.015625 4.054687c2.640625 1.523438 5.898437 1.527344 8.539062 0 2.640625-1.523437 4.269532-4.34375 4.269532-7.394531-.003907-3.046875-1.632813-5.867187-4.273438-7.390625l-7.085938-4.089844c10.078126-15.128906 23.058594-28.109374 38.1875-38.1875zm0 0"/><path d="m153.613281 187.75c15.523438-.046875 29.054688-10.570312 32.921875-25.601562h35.347656c4.710938 0 8.53125-3.820313 8.53125-8.535157 0-4.710937-3.820312-8.53125-8.53125-8.53125h-35.347656c-3.109375-11.945312-12.441406-21.277343-24.386718-24.386719v-60.945312c0-4.714844-3.820313-8.535156-8.535157-8.535156-4.710937 0-8.53125 3.820312-8.53125 8.535156v60.945312c-16.636719 4.265626-27.496093 20.253907-25.328125 37.292969 2.167969 17.039063 16.683594 29.796875 33.859375 29.761719zm0-51.203125c9.425781 0 17.066407 7.640625 17.066407 17.066406s-7.640626 17.070313-17.066407 17.070313-17.066406-7.644532-17.066406-17.070313c.011719-9.417969 7.648437-17.050781 17.066406-17.066406zm0 0"/><path d="m409.613281 341.347656c0 4.714844 3.820313 8.535156 8.535157 8.535156 4.710937 0 8.53125-3.820312 8.53125-8.535156 0-21.097656-18.488282-38.621094-42.664063-42.023437v-9.175781c0-4.710938-3.820313-8.535157-8.535156-8.535157-4.710938 0-8.53125 3.824219-8.53125 8.535157v9.175781c-24.175781 3.402343-42.667969 20.925781-42.667969 42.023437s18.492188 38.625 42.667969 42.027344v50.933594c-14.683594-2.863282-25.601563-12.800782-25.601563-24.695313 0-4.710937-3.820312-8.53125-8.535156-8.53125-4.710938 0-8.53125 3.820313-8.53125 8.53125 0 21.101563 18.492188 38.625 42.667969 42.027344v9.175781c0 4.710938 3.820312 8.53125 8.53125 8.53125 4.714843 0 8.535156-3.820312 8.535156-8.53125v-9.175781c24.175781-3.402344 42.664063-20.925781 42.664063-42.027344 0-21.097656-18.488282-38.621093-42.664063-42.023437v-50.933594c14.679687 2.863281 25.597656 12.796875 25.597656 24.691406zm-42.664062 24.691406c-14.683594-2.863281-25.601563-12.796874-25.601563-24.691406 0-11.894531 10.917969-21.828125 25.601563-24.691406zm42.664062 43.574219c0 11.894531-10.917969 21.832031-25.597656 24.695313v-49.386719c14.679687 2.863281 25.597656 12.800781 25.597656 24.691406zm0 0"/><path d="m493.722656 307.214844c-.183594-.230469-.378906-.453125-.585937-.664063-11.835938-20.113281-28.605469-36.882812-48.71875-48.722656-.214844-.207031-.4375-.40625-.671875-.589844-.214844-.121093-.453125-.121093-.671875-.226562-41.84375-24.085938-93.339844-24.085938-135.183594 0-.222656.101562-.460937.101562-.675781.226562-.234375.183594-.457032.382813-.667969.589844-20.117187 11.839844-36.882813 28.605469-48.71875 48.71875-.207031.210937-.40625.433594-.589844.667969-.121093.214844-.121093.453125-.226562.671875-24.085938 41.84375-24.085938 93.34375 0 135.1875.105469.21875.105469.460937.226562.675781.253907.386719.539063.757812.851563 1.097656 11.820312 19.925782 28.492187 36.535156 48.457031 48.285156.210937.210938.433594.40625.667969.589844.304687.148438.613281.277344.933594.386719 41.714843 23.875 92.953124 23.875 134.664062 0 .320312-.109375.632812-.238281.933594-.386719.234375-.183594.457031-.378906.671875-.589844 19.964843-11.75 36.632812-28.359374 48.453125-48.285156.3125-.339844.597656-.710937.851562-1.097656.121094-.214844.121094-.457031.226563-.675781 24.085937-41.84375 24.085937-93.34375 0-135.1875-.105469-.21875-.105469-.457031-.226563-.671875zm.796875 76.714844c-1.0625 15.203124-5.050781 30.058593-11.742187 43.75-4.035156-2.097657-9.007813-.632813-11.257813 3.320312s-.972656 8.976562 2.890625 11.375c-8.558594 12.609375-19.429687 23.480469-32.039062 32.035156-2.398438-3.863281-7.421875-5.140625-11.371094-2.890625-3.953125 2.25-5.421875 7.222657-3.320312 11.257813-13.691407 6.695312-28.546876 10.683594-43.75 11.746094-.1875-4.53125-3.914063-8.109376-8.449219-8.109376-4.53125 0-8.257813 3.578126-8.445313 8.109376-15.203125-1.0625-30.058594-5.050782-43.75-11.746094 2.097656-4.035156.632813-9.007813-3.320312-11.257813s-8.976563-.972656-11.375 2.890625c-12.609375-8.554687-23.480469-19.425781-32.035156-32.035156 3.863281-2.398438 5.140624-7.421875 2.890624-11.375s-7.222656-5.421875-11.257812-3.320312c-6.695312-13.691407-10.683594-28.546876-11.746094-43.75 4.53125-.1875 8.105469-3.914063 8.105469-8.449219 0-4.53125-3.574219-8.257813-8.105469-8.445313 1.0625-15.191406 5.046875-30.039062 11.730469-43.722656 4.042969 2.089844 9.011719.617188 11.265625-3.335938 2.25-3.953124.976562-8.980468-2.882812-11.386718 8.550781-12.601563 19.414062-23.46875 32.015624-32.023438 2.40625 3.863282 7.433594 5.136719 11.386719 2.882813 3.953125-2.25 5.421875-7.222657 3.328125-11.261719 13.691406-6.695312 28.546875-10.683594 43.75-11.746094.1875 4.53125 3.914063 8.105469 8.445313 8.105469 4.535156 0 8.261719-3.574219 8.449219-8.105469 15.203124 1.0625 30.058593 5.050782 43.75 11.746094-2.09375 4.039062-.625 9.007812 3.328124 11.257812 3.953126 2.25 8.976563.980469 11.382813-2.878906 12.601563 8.554688 23.46875 19.421875 32.019531 32.023438-3.890625 2.394531-5.183594 7.441406-2.925781 11.410156 2.261719 3.96875 7.261719 5.433594 11.304687 3.3125 6.6875 13.683594 10.667969 28.527344 11.730469 43.722656-4.527343.1875-8.105469 3.914063-8.105469 8.445313 0 4.535156 3.578126 8.261719 8.105469 8.449219zm0 0"/></svg>